<svg xmlns="http://www.w3.org/2000/svg" xmlns:xlink="http://www.w3.org/1999/xlink" width="288.113" height="320.117" viewBox="0 0 288.113 320.117"><defs><clipPath id="a"><rect width="256.277" height="269" fill="#fff" stroke="#707070" stroke-width="1"/></clipPath></defs><g transform="translate(0 -114.383)"><path d="M56.855,69.565c-.284.145-.268.2.016.065a.729.729,0,0,0,.223-.145C57.094,69.435,57.088,69.441,56.855,69.565Zm.568-.291c-.134.1-.134.108.029.028a.459.459,0,0,0,.166-.108C57.618,69.135,57.58,69.15,57.423,69.274Zm.373-.22c-.134.1-.134.108.029.028a.459.459,0,0,0,.166-.108C57.991,68.915,57.953,68.931,57.8,69.054Zm.373-.216c-.134.1-.134.108.029.028a.459.459,0,0,0,.166-.108C58.365,68.7,58.326,68.714,58.17,68.838Zm.517-.325c-.262.161-.345.269-.112.145.166-.093.434-.291.389-.3a1.5,1.5,0,0,0-.278.151ZM35.792.015c-.166.015-.689.065-1.162.1A38.66,38.66,0,0,0,7.107,15.492,36.082,36.082,0,0,0,.346,31.7,27.568,27.568,0,0,0,0,37.105a27.585,27.585,0,0,0,.345,5.4,37.6,37.6,0,0,0,26.2,29.974,41.613,41.613,0,0,0,8.085,1.623,72.614,72.614,0,0,0,7.338,0,39.608,39.608,0,0,0,13.8-3.908c.658-.328.785-.414.7-.485q-3.148-4.028-6.237-8.1L44.1,53.6l-7.673-11Q32.6,37.078,28.7,31.605c-.029-.006-.061,4.882-.074,10.849C28.6,52.9,28.6,53.324,28.46,53.571a1.331,1.331,0,0,1-.658.659c-.239.117-.45.139-1.58.139h-1.3l-.345-.21a1.384,1.384,0,0,1-.5-.529l-.156-.328.016-14.54.022-14.546.233-.281a2.021,2.021,0,0,1,.555-.442c.306-.145.428-.161,1.724-.161,1.529,0,1.781.059,2.18.479q4.659,6.716,9.24,13.483c4.973,7.3,11.768,17.273,15.11,22.17l6.065,8.9.306-.195a39.034,39.034,0,0,0,7.868-6.687,36.406,36.406,0,0,0,9.014-18.964,27.568,27.568,0,0,0,.345-5.4,27.586,27.586,0,0,0-.345-5.4,37.6,37.6,0,0,0-26.2-29.974A41.2,41.2,0,0,0,42.086.117C41.368.046,36.417-.035,35.8.024ZM51.47,22.454a1.47,1.47,0,0,1,.756.856c.061.189.073,4.22.061,13.306l-.022,13.041L49.89,46.133l-2.381-3.524V33.129c0-6.128.029-9.572.073-9.739a1.505,1.505,0,0,1,.741-.915c.306-.151.418-.167,1.6-.167C51.027,22.309,51.221,22.324,51.47,22.454Z" transform="translate(6.233 221.587)"/><path d="M81.583,27.808q-1.58-.475-3.16-.9c.176-.651.332-1.3.488-1.954,2.4-10.491.819-18.923-4.506-21.7-5.131-2.658-13.5.106-21.966,6.759-.839.651-1.658,1.338-2.439,2.024-.527-.458-1.073-.915-1.619-1.355C39.5,3.569,30.608.576,25.282,3.375,20.171,6.051,18.65,13.99,20.8,23.918c.215.986.449,1.954.722,2.94-1.249.317-2.478.669-3.628,1.039C7.472,31.152,0,36.292,0,41.608c0,5.492,7.959,11,18.786,14.346.878.264,1.756.528,2.653.757-.293,1.056-.546,2.095-.78,3.168-2.048,9.769-.449,17.515,4.662,20.173,5.267,2.746,14.124-.07,22.746-6.883.683-.546,1.366-1.109,2.048-1.707.858.757,1.756,1.479,2.653,2.183,8.349,6.478,16.6,9.1,21.693,6.443,5.267-2.746,6.984-11.072,4.76-21.211q-.263-1.162-.585-2.376c.624-.158,1.229-.334,1.834-.51,11.256-3.362,19.411-8.8,19.411-14.381,0-5.334-7.686-10.509-18.3-13.8ZM55.188,12.863C62.445,7.16,69.215,4.924,72.3,6.526c3.3,1.707,4.565,8.608,2.5,17.673-.137.6-.273,1.179-.449,1.76a109.91,109.91,0,0,0-13.129-1.866,91.246,91.246,0,0,0-8.31-9.347c.761-.651,1.5-1.267,2.282-1.883ZM32.617,50.744c.995,1.531,2.009,3.063,3.082,4.559-3.043-.3-6.067-.739-9.052-1.32a77.224,77.224,0,0,1,3.18-7.833C30.725,47.7,31.642,49.23,32.617,50.744ZM26.707,29.568c2.809-.563,5.794-1.021,8.9-1.373-1.034,1.461-2.048,2.957-3,4.471-.956,1.5-1.892,3.028-2.77,4.577a78.829,78.829,0,0,1-3.121-7.675ZM32.052,41.7c1.288-2.429,2.692-4.806,4.175-7.147s3.082-4.612,4.76-6.847c2.926-.194,5.911-.3,8.954-.3s6.048.106,8.954.3q2.487,3.327,4.74,6.812c1.5,2.324,2.907,4.7,4.233,7.111q-1.961,3.644-4.214,7.182c-1.483,2.341-3.063,4.612-4.721,6.865-2.907.194-5.93.282-8.993.282s-6.028-.088-8.9-.246q-2.546-3.353-4.8-6.865C34.744,46.5,33.359,44.125,32.052,41.7Zm35.232,9.013c.995-1.549,1.931-3.116,2.848-4.7a76.968,76.968,0,0,1,3.3,7.8c-3.024.616-6.087,1.091-9.169,1.408C65.313,53.736,66.308,52.223,67.283,50.709Zm2.809-13.466c-.917-1.549-1.853-3.1-2.829-4.612q-1.434-2.244-2.985-4.436c3.141.352,6.145.827,8.954,1.408A73.231,73.231,0,0,1,70.092,37.243ZM49.98,17.44a79.662,79.662,0,0,1,5.774,6.3c-3.863-.158-7.745-.158-11.607,0C46.059,21.471,48.029,19.358,49.98,17.44ZM27.35,6.649c3.277-1.725,10.554.739,18.221,6.865.488.387.975.81,1.483,1.232a91.85,91.85,0,0,0-8.369,9.347,113.2,113.2,0,0,0-13.109,1.831c-.254-.9-.468-1.813-.683-2.728-1.834-8.52-.624-14.945,2.458-16.546Zm-4.779,46.4c-.819-.211-1.619-.44-2.419-.687a41.655,41.655,0,0,1-12.29-5.492,7.853,7.853,0,0,1-3.668-5.263c0-3.221,6.165-7.34,15.06-10.139,1.112-.352,2.243-.669,3.375-.968a88.236,88.236,0,0,0,4.779,11.2A90.692,90.692,0,0,0,22.571,53.05ZM45.317,70.3a36.477,36.477,0,0,1-11,6.214,9.492,9.492,0,0,1-6.886.229c-3.1-1.619-4.389-7.833-2.634-16.194.215-.986.449-1.972.722-2.94a107.519,107.519,0,0,0,13.246,1.725,95.425,95.425,0,0,0,8.427,9.4C46.566,69.28,45.941,69.808,45.317,70.3ZM50.1,66.023a85.93,85.93,0,0,1-5.911-6.39c1.873.07,3.8.106,5.755.106,2.009,0,3.98-.035,5.93-.123A78.042,78.042,0,0,1,50.1,66.023Zm25.5,5.281a7.624,7.624,0,0,1-3.219,5.51c-3.1,1.619-9.715-.493-16.855-6.02-.819-.634-1.639-1.32-2.478-2.024a89.09,89.09,0,0,0,8.232-9.435,105.867,105.867,0,0,0,13.3-1.848c.2.722.371,1.443.527,2.148A29.023,29.023,0,0,1,75.594,71.3Zm3.55-18.923c-.546.158-1.092.317-1.658.458a84.535,84.535,0,0,0-4.975-11.23,83.946,83.946,0,0,0,4.779-11.072c1.014.264,1.99.546,2.926.827,9.091,2.816,15.47,7.006,15.47,10.21,0,3.45-6.808,7.9-16.543,10.808Zm-29.2-2.64c4.936,0,8.935-3.609,8.935-8.062s-4-8.062-8.935-8.062-8.935,3.609-8.935,8.062S45.005,49.741,49.941,49.741Z" transform="translate(92.385 219.127)" fill="#82d7f7"/><path d="M54.672,51.335A5.344,5.344,0,0,0,59.6,45.769a5.589,5.589,0,0,0-5.614-5.23h-.2a5.509,5.509,0,0,0-5.417,5.614,5.7,5.7,0,0,0,1.624,3.659c-3.445,6.467-8.615,11.221-16.448,15.217a27.794,27.794,0,0,1-16.251,2.948c-4.529-.616-8.073-2.57-10.242-5.706a13.771,13.771,0,0,1-.838-15.023,22.686,22.686,0,0,1,6.9-7.753A30.75,30.75,0,0,1,11.731,34.6C-2.85,44.684-1.368,58.469,3.063,64.984c3.3,4.754,10.048,7.794,17.434,7.794a26.459,26.459,0,0,0,6.058-.616c12.806-2.377,22.506-9.793,28.071-20.729ZM72.25,39.448C64.621,30.794,53.39,26.04,40.584,26.04H38.907a5.325,5.325,0,0,0-4.921-2.853h-.148a5.405,5.405,0,0,0-5.414,5.563,5.588,5.588,0,0,0,5.614,5.23h.243a5.552,5.552,0,0,0,4.924-3.329h1.824a39.111,39.111,0,0,1,21.326,6.322A26.3,26.3,0,0,1,72.993,49.336a12.722,12.722,0,0,1-.148,11.415c-2.807,5.227-7.537,7.988-13.789,7.988A26.48,26.48,0,0,1,49.3,66.695c-1.18.946-3.152,2.517-4.582,3.469a32.553,32.553,0,0,0,12.951,2.993c9.6,0,16.741-5.227,19.452-10.269,2.952-5.706,2.708-15.309-4.829-23.534Zm-50.918,13.6a5.581,5.581,0,0,0,5.614,5.23h.2A5.42,5.42,0,1,0,27,47.435h-.2a2.19,2.19,0,0,0-.74.092A34.534,34.534,0,0,1,20.888,26.04a25.3,25.3,0,0,1,5.907-15.026c2.955-3.567,8.52-5.328,12.313-5.42C49.745,5.4,54.179,18.2,54.52,23.282l4.924,1.425C58.31,9.113,48.269.931,38.664.931c-9.013,0-17.332,6.325-20.685,15.6C13.4,28.893,16.4,40.777,22.019,50.288a4.094,4.094,0,0,0-.687,2.755Z" transform="translate(201.232 220.746)" fill="#704bb5"/><path d="M0,2.25,6.455,74.335l28.966,9.507,29.151-9.507L71.029,2.25ZM57.008,25.544h-34l.758,9H56.25L53.734,61.568,35.625,66.485v.055h-.2L17.165,61.568l-1.11-13.805h8.823l.647,6.939,9.9,2.641L45.355,54.7l1.11-11.328H15.593L13.225,16.856h44.6l-.814,8.687Z" transform="translate(0 112.133)" fill="#ff5f5f"/><path d="M0,2.25,6.974,74.335l31.391,9.507,31.391-9.507L76.729,2.25H0ZM62.562,16.82,61.6,25.434,38.564,34.413l-.06.018H60.784l-2.558,26.7L38.6,66.358,18.863,61.04,17.584,47.581h9.771l.639,6.975L38.5,56.978l10.93-2.8.739-11.219-33.229-.091v-.018l-.04.018-.719-8.432,22.4-8.505,1.3-.492H15.326L14.167,16.82Z" transform="translate(105.186 112.133)" fill="#0017cb"/><path d="M0,2.25V82.856H72.05V2.25ZM39.209,65.116c0,7.845-4.117,11.425-10.116,11.425-5.42,0-8.556-3.131-10.164-6.927l5.516-3.724c1.061,2.105,2.026,3.886,4.358,3.886,2.219,0,3.635-.972,3.635-4.768V39.261h6.771ZM55.228,76.541A12.843,12.843,0,0,1,42.892,68.8l5.516-3.563c1.447,2.645,3.345,4.606,6.674,4.606,2.8,0,4.6-1.565,4.6-3.742,0-2.591-1.833-3.509-4.937-5.038l-1.689-.81C48.167,57.937,44.935,55,44.935,48.833c0-5.686,3.876-10,9.907-10,4.31,0,7.4,1.673,9.617,6.063l-5.275,3.778c-1.158-2.321-2.412-3.239-4.358-3.239a3.093,3.093,0,0,0-3.233,3.239c0,2.267,1.254,3.185,4.165,4.606l1.689.81c5.758,2.753,8.99,5.578,8.99,11.911,0,6.8-4.793,10.544-11.21,10.544Z" transform="translate(215.613 112.133)" fill="#eacf00"/><g transform="translate(31.836 165.5)" clip-path="url(#a)"><g transform="translate(37.683 165.412)"><path d="M30.632,2.973q-11.063,0-13.83,15.392,4.149-7.7,9.681-5.772c2.1.731,3.608,2.855,5.273,5.206,2.711,3.829,5.85,8.262,12.705,8.262q11.063,0,13.83-15.392-4.149,7.7-9.681,5.772c-2.1-.731-3.608-2.855-5.273-5.206C40.627,7.406,37.488,2.973,30.632,2.973ZM16.8,26.061q-11.063,0-13.83,15.392,4.149-7.7,9.681-5.772c2.1.731,3.608,2.855,5.273,5.206,2.711,3.829,5.85,8.262,12.705,8.262q11.063,0,13.83-15.392-4.149,7.7-9.681,5.772c-2.1-.731-3.608-2.855-5.273-5.206C26.8,30.494,23.658,26.061,16.8,26.061Z" transform="translate(-2.973 -2.973)" fill="#16bdca"/></g></g><path d="M47.153,44.879c0,6.458-6.407,6.309-7.085,6.309H27.019V38.748H40.068c6.866,0,7.085,4.858,7.085,6.131Zm-8.09-11.137c.108,0,6.2.152,6.2-5.529,0-2.363-.566-5.462-6.2-5.462H27.019V33.742ZM72.269,13.621V59.1c-.019,6.272-5.4,11.353-12.045,11.371H12.045C5.4,70.455.019,65.375,0,59.1V13.621C.019,7.349,5.4,2.268,12.045,2.25H60.224c6.644.018,12.026,5.1,12.045,11.371ZM54.533,45.782c0-3.285-1.073-8.877-7.913-10.256v-.111c3.7-1.489,6.024-4.3,6.024-8.473,0-1.066.323-9.865-12.518-9.865H19.639v39.8c20.686,0,22.563.256,26.391-.87,2.292-.673,8.5-2.738,8.5-10.221Z" transform="translate(162.66 314.571)" fill="#7d20f3"/></g></svg>