<svg xmlns="http://www.w3.org/2000/svg" width="36" height="38.5" viewBox="0 0 36 38.5"><defs><style>.a{fill: #000000;}</style></defs><path class="a" d="M18,.446C8.055.446,0,9.284,0,20.184,0,28.907,5.157,36.3,12.307,38.912a.925.925,0,0,0,1.23-.949c0-.469-.015-1.711-.023-3.356C8.508,35.8,7.452,31.959,7.452,31.959a5.131,5.131,0,0,0-2-2.887c-1.63-1.224.126-1.2.126-1.2a3.831,3.831,0,0,1,2.757,2.033,3.65,3.65,0,0,0,5.243,1.642,4.373,4.373,0,0,1,1.14-2.64c-4-.493-8.2-2.191-8.2-9.754a8.037,8.037,0,0,1,1.852-5.3,7.648,7.648,0,0,1,.158-5.224s1.507-.53,4.95,2.023a15.532,15.532,0,0,1,9,0C25.9,8.1,27.4,8.632,27.4,8.632a7.862,7.862,0,0,1,.18,5.224,8.072,8.072,0,0,1,1.845,5.3c0,7.583-4.208,9.253-8.212,9.738a4.978,4.978,0,0,1,1.215,3.652c0,2.642-.022,4.764-.022,5.405a.916.916,0,0,0,1.237.938C30.847,36.3,36,28.894,36,20.184,36,9.284,27.941.445,18,.445" transform="translate(0 -0.445)"/></svg>