<svg width="634" height="644" viewBox="0 0 634 644">
    <g id="HeroIllustration" transform="translate(-988 -253)">
      <rect  class="square-anim" id="Rectangle_4" data-name="Rectangle 4" width="161" height="161" rx="20" transform="translate(1310 253)" fill="#1530ff"/>
      <rect  class="square-anim" id="Rectangle_8" data-name="Rectangle 8" width="161" height="161" rx="20" transform="translate(1310 575)" fill="#1530ff"/>
      <rect  class="square-anim" id="Rectangle_7" data-name="Rectangle 7" width="161" height="161" rx="20" transform="translate(1461 414)" fill="rgba(52,114,255,0.99)" opacity="0.25"/>
      <rect  class="square-anim" id="Rectangle_5" data-name="Rectangle 5" width="161" height="161" rx="20" transform="translate(1149 414)" fill="#fff"/>
      <rect  class="square-anim" id="Rectangle_9" data-name="Rectangle 9" width="161" height="161" rx="20" transform="translate(1149 736)" fill="#fff"/>
      <path id="Path_1" data-name="Path 1" d="M20,0H141a20,20,0,0,1,20,20V141a20,20,0,0,1-20,20H20A20,20,0,0,1,0,141V20A20,20,0,0,1,20,0Z" transform="translate(988 573)" fill="rgba(52,114,255,0.99)" opacity="0.998"/>
      <ellipse  class="square-anim" id="Ellipse_3" data-name="Ellipse 3" cx="80.451" cy="76.658" rx="80.451" ry="76.658" transform="matrix(0.999, 0.035, -0.035, 0.999, 1154.351, 575)" fill="#a3ffab"/>
      <ellipse class="square-anim"  id="Ellipse_4" data-name="Ellipse 4" cx="75.5" cy="80.5" rx="75.5" ry="80.5" transform="translate(1310 414)" fill="#ffae5d"/>
    </g>
  </svg>
  