<svg xmlns="http://www.w3.org/2000/svg" width="936" height="2938" viewBox="0 0 936 2938"><g transform="translate(-988 -253)"><circle cx="198" cy="198" r="198" transform="translate(1528 2795)" fill="#a3ffab" opacity="0.231"/><rect width="161" height="161" rx="20" transform="translate(1310 253)" fill="#1530ff"/><rect width="161" height="161" rx="20" transform="translate(1310 575)" fill="#1530ff"/><rect width="161" height="161" rx="20" transform="translate(1461 414)" fill="rgba(52,114,255,0.99)" opacity="0.25"/><rect width="161" height="161" rx="20" transform="translate(1149 414)" fill="#fff"/><rect width="161" height="161" rx="20" transform="translate(1149 736)" fill="#fff"/><path d="M20,0H141a20,20,0,0,1,20,20V141a20,20,0,0,1-20,20H20A20,20,0,0,1,0,141V20A20,20,0,0,1,20,0Z" transform="translate(988 573)" fill="rgba(52,114,255,0.99)" opacity="0.998"/><ellipse cx="80.451" cy="76.658" rx="80.451" ry="76.658" transform="matrix(0.999, 0.035, -0.035, 0.999, 1154.351, 575)" fill="#a3ffab"/><ellipse cx="75.5" cy="80.5" rx="75.5" ry="80.5" transform="translate(1310 414)" fill="#ffae5d"/></g></svg>