<svg xmlns="http://www.w3.org/2000/svg" width="31.5" height="34.891" viewBox="0 0 31.5 34.891"><defs><style>.a{fill:#ffae5d;}</style></defs><path class="a" d="M7.051,34.892H.52V11.6H7.051ZM3.782,8.419A4.039,4.039,0,0,1,0,4.19,4,4,0,0,1,3.782,0,4,4,0,0,1,7.564,4.19,4.039,4.039,0,0,1,3.782,8.419ZM31.493,34.892H24.976V23.552c0-2.7-.049-6.168-3.4-6.168-3.4,0-3.916,2.936-3.916,5.974V34.892H11.142V11.6h6.263v3.178H17.5a6.774,6.774,0,0,1,6.179-3.762c6.609,0,7.824,4.821,7.824,11.083v12.8Z" transform="translate(0 -0.001)"/></svg>